<svg id="visual" viewBox="0 0 960 300" width="960" height="300" xmlns="http://www.w3.org/2000/svg" xmlns:xlink="http://www.w3.org/1999/xlink" version="1.1"><rect x="0" y="0" width="960" height="300" fill="#001220"></rect><path d="M0 79L26.7 79.8C53.3 80.7 106.7 82.3 160 83.8C213.3 85.3 266.7 86.7 320 92.7C373.3 98.7 426.7 109.3 480 108C533.3 106.7 586.7 93.3 640 92.5C693.3 91.7 746.7 103.3 800 105.3C853.3 107.3 906.7 99.7 933.3 95.8L960 92L960 0L933.3 0C906.7 0 853.3 0 800 0C746.7 0 693.3 0 640 0C586.7 0 533.3 0 480 0C426.7 0 373.3 0 320 0C266.7 0 213.3 0 160 0C106.7 0 53.3 0 26.7 0L0 0Z" fill="#fa7268"></path><path d="M0 95L26.7 90.3C53.3 85.7 106.7 76.3 160 74.3C213.3 72.3 266.7 77.7 320 80.5C373.3 83.3 426.7 83.7 480 80C533.3 76.3 586.7 68.7 640 68C693.3 67.3 746.7 73.7 800 77C853.3 80.3 906.7 80.7 933.3 80.8L960 81L960 0L933.3 0C906.7 0 853.3 0 800 0C746.7 0 693.3 0 640 0C586.7 0 533.3 0 480 0C426.7 0 373.3 0 320 0C266.7 0 213.3 0 160 0C106.7 0 53.3 0 26.7 0L0 0Z" fill="#eb5967"></path><path d="M0 51L26.7 51C53.3 51 106.7 51 160 49.7C213.3 48.3 266.7 45.7 320 47C373.3 48.3 426.7 53.7 480 57.3C533.3 61 586.7 63 640 63.2C693.3 63.3 746.7 61.7 800 59.5C853.3 57.3 906.7 54.7 933.3 53.3L960 52L960 0L933.3 0C906.7 0 853.3 0 800 0C746.7 0 693.3 0 640 0C586.7 0 533.3 0 480 0C426.7 0 373.3 0 320 0C266.7 0 213.3 0 160 0C106.7 0 53.3 0 26.7 0L0 0Z" fill="#da3f67"></path><path d="M0 31L26.7 28.2C53.3 25.3 106.7 19.7 160 17.2C213.3 14.7 266.7 15.3 320 19.5C373.3 23.7 426.7 31.3 480 31.5C533.3 31.7 586.7 24.3 640 21.8C693.3 19.3 746.7 21.7 800 22.3C853.3 23 906.7 22 933.3 21.5L960 21L960 0L933.3 0C906.7 0 853.3 0 800 0C746.7 0 693.3 0 640 0C586.7 0 533.3 0 480 0C426.7 0 373.3 0 320 0C266.7 0 213.3 0 160 0C106.7 0 53.3 0 26.7 0L0 0Z" fill="#c62368"></path></svg>